#!OML:ASF E:\motion texture\Top Level 1\Subject 1\Session 1\male.ASF
:FULLY-SPECIFIED
:DEGREES
289
root -9.849 18.0235 5.20035 883.103 -83.598 -878.162
lowerback -1.6399 0.195867 1.08784
upperback -0.924551 0.234988 0.771439
thorax -0.0259935 0.111057 0.183436
lowerneck -15.1496 -0.954579 -6.12223
upperneck 24.9138 0.812999 -3.75842
head 10.5345 -0.854104 -0.237409
rclavicle -6.05983e-015 -1.78906e-015
rhumerus -23.6889 -15.6628 -75.1392
rradius 95.9809
rwrist -39.1611
rhand -12.357 -41.293
rfingers 7.12502
rthumb 13.7129 -70.8211
lclavicle -6.05983e-015 -1.78906e-015
lhumerus -37.7569 -2.38724 93.7599
lradius 112.724
lwrist 27.7769
lhand -5.46114 27.6595
lfingers 7.12502
lthumb 20.3503 56.6132
rfemur -22.5555 -5.43104 21.3113
rtibia 68.6071
rfoot 4.30607 -18.2529
rtoes 9.16859
lfemur -15.268 -3.78497 -18.6488
ltibia 19.1272
lfoot -5.49707 -1.48005
ltoes 3.35994
290
root -9.99225 18.0424 5.20054 883.429 -83.8184 -878.544
lowerback -1.59085 0.0642485 0.962418
upperback -0.914601 0.0619777 0.810584
thorax -0.0442661 0.0251097 0.290967
lowerneck -15.1678 -0.860863 -6.02573
upperneck 25.0707 0.973393 -3.97006
head 10.5969 -0.8084 -0.310577
rclavicle 4.19467e-015 -1.00386e-014
rhumerus -24.3308 -14.772 -75.5957
rradius 96.8871
rwrist -38.7968
rhand -12.4618 -41.3831
rfingers 7.12502
rthumb 13.612 -70.918
lclavicle 4.19467e-015 -1.00386e-014
lhumerus -37.3462 -2.79455 93.5463
lradius 112.142
lwrist 28.5873
lhand -5.12145 27.7927
lfingers 7.12502
lthumb 20.6767 56.7113
rfemur -23.7233 -5.86761 21.2357
rtibia 68.8407
rfoot 3.94657 -18.3621
rtoes 9.35821
lfemur -14.3384 -3.93278 -18.9083
ltibia 18.5065
lfoot -5.73842 -1.54109
ltoes 3.43642
291
root -10.1349 18.0586 5.19998 884.011 -84.0567 -879.187
lowerback -1.53269 -0.0679137 0.80636
upperback -0.905389 -0.111201 0.839526
thorax -0.0673853 -0.0607736 0.405469
lowerneck -15.1657 -0.772627 -5.94614
upperneck 25.2296 1.12146 -4.15368
head 10.6566 -0.766712 -0.37264
rclavicle 1.23196e-014 5.80203e-015
rhumerus -24.9891 -13.8642 -76.0736
rradius 97.7691
rwrist -38.4278
rhand -12.5349 -41.3907
rfingers 7.12502
rthumb 13.5415 -70.9304
lclavicle 1.23196e-014 5.80203e-015
lhumerus -36.8945 -3.17905 93.3192
lradius 111.509
lwrist 29.3706
lhand -4.73708 27.9045
lfingers 7.12502
lthumb 21.046 56.7824
rfemur -24.8322 -6.26699 21.1375
rtibia 68.8864
rfoot 3.52265 -18.305
rtoes 9.41841
lfemur -13.4124 -4.0645 -19.2001
ltibia 17.8959
lfoot -5.9691 -1.63411
ltoes 3.51899
292
root -10.2767 18.072 5.19861 884.686 -84.3006 -879.928
lowerback -1.47568 -0.199184 0.643787
upperback -0.891808 -0.283269 0.862373
thorax -0.0843093 -0.146023 0.51766
lowerneck -15.1357 -0.689807 -5.87852
upperneck 25.3748 1.25565 -4.31216
head 10.7059 -0.728631 -0.42535
rclavicle 2.1513e-015 -3.721e-015
rhumerus -25.6441 -12.9505 -76.5811
rradius 98.6082
rwrist -38.0543
rhand -12.541 -41.2599
rfingers 7.12502
rthumb 13.5356 -70.8
lclavicle 2.1513e-015 -3.721e-015
lhumerus -36.4108 -3.53727 93.0826
lradius 110.836
lwrist 30.1391
lhand -4.35976 27.9434
lfingers 7.12502
lthumb 21.4085 56.7806
rfemur -25.8855 -6.61732 21.0423
rtibia 68.7473
rfoot 3.03974 -18.1243
rtoes 9.38475
lfemur -12.5017 -4.17407 -19.4933
ltibia 17.3079
lfoot -6.19224 -1.75608
ltoes 3.6018
293
root -10.4177 18.0827 5.19656 885.438 -84.5499 -880.748
lowerback -1.41075 -0.331632 0.475908
upperback -0.875749 -0.456929 0.883831
thorax -0.102007 -0.232027 0.631669
lowerneck -15.0862 -0.611223 -5.82538
upperneck 25.5091 1.38125 -4.45394
head 10.7477 -0.693252 -0.470681
rclavicle -1.07779e-014 1.02126e-014
rhumerus -26.2795 -12.025 -77.1185
rradius 99.3811
rwrist -37.6686
rhand -12.4904 -40.9667
rfingers 7.12502
rthumb 13.5844 -70.5035
lclavicle -1.07779e-014 1.02126e-014
lhumerus -35.8904 -3.86192 92.8413
lradius 110.117
lwrist 30.9156
lhand -4.02373 27.8872
lfingers 7.12502
lthumb 21.7312 56.6874
rfemur -26.8777 -6.92029 20.9496
rtibia 68.427
rfoot 2.49029 -17.8615
rtoes 9.2516
lfemur -11.606 -4.26367 -19.7849
ltibia 16.7483
lfoot -6.41404 -1.90385
ltoes 3.68653
294
root -10.5577 18.0906 5.19382 886.197 -84.8007 -881.576
lowerback -1.35329 -0.466261 0.311328
upperback -0.850775 -0.633861 0.905726
thorax -0.105281 -0.319672 0.744384
lowerneck -15.012 -0.533657 -5.7831
upperneck 25.619 1.50197 -4.58266
head 10.7758 -0.658161 -0.509774
rclavicle 3.69771e-015 -3.23025e-015
rhumerus -26.8636 -11.0951 -77.6949
rradius 100.067
rwrist -37.2801
rhand -12.3506 -40.5395
rfingers 7.12502
rthumb 13.7191 -70.0673
lclavicle 3.69771e-015 -3.23025e-015
lhumerus -35.3271 -4.14756 92.5938
lradius 109.354
lwrist 31.7242
lhand -3.71286 27.7989
lfingers 7.12502
lthumb 22.0297 56.5643
rfemur -27.8127 -7.17277 20.8667
rtibia 67.9296
rfoot 1.89477 -17.5525
rtoes 9.0565
lfemur -10.7334 -4.33465 -20.0638
ltibia 16.2215
lfoot -6.63435 -2.06926
ltoes 3.79195
295
root -10.6968 18.0958 5.19037 886.926 -85.052 -882.372
lowerback -1.29564 -0.601956 0.153556
upperback -0.824887 -0.812493 0.929005
thorax -0.106656 -0.408236 0.854869
lowerneck -14.9049 -0.456482 -5.75092
upperneck 25.7123 1.61779 -4.69998
head 10.7912 -0.623868 -0.543438
rclavicle -1.89637e-014 1.6847e-014
rhumerus -27.4028 -10.1602 -78.3056
rradius 100.657
rwrist -36.9144
rhand -12.131 -39.9989
rfingers 7.12502
rthumb 13.9307 -69.5122
lclavicle -1.89637e-014 1.6847e-014
lhumerus -34.7365 -4.39245 92.3453
lradius 108.542
lwrist 32.5974
lhand -3.37969 27.774
lfingers 7.12502
lthumb 22.3495 56.5013
rfemur -28.6882 -7.37665 20.7948
rtibia 67.2576
rfoot 1.26078 -17.227
rtoes 8.85334
lfemur -9.88406 -4.39212 -20.3244
ltibia 15.7283
lfoot -6.85587 -2.24372
ltoes 3.94843
296
root -10.835 18.0985 5.18635 887.66 -85.3012 -883.172
lowerback -1.24216 -0.738181 0.00126808
upperback -0.793347 -0.992118 0.953686
thorax -0.0988624 -0.497379 0.963775
lowerneck -14.7722 -0.378543 -5.72359
upperneck 25.7895 1.73251 -4.81671
head 10.7958 -0.589554 -0.576006
rclavicle -2.20527e-016 -2.73329e-015
rhumerus -27.8782 -9.21868 -78.9507
rradius 101.143
rwrist -36.6038
rhand -11.875 -39.4195
rfingers 7.12502
rthumb 14.1775 -68.9157
lclavicle -2.20527e-016 -2.73329e-015
lhumerus -34.1106 -4.59155 92.0974
lradius 107.674
lwrist 33.5568
lhand -3.04887 27.77
lfingers 7.12502
lthumb 22.6671 56.4589
rfemur -29.5012 -7.53347 20.7265
rtibia 66.4129
rfoot 0.567768 -16.8962
rtoes 8.52744
lfemur -9.05186 -4.43979 -20.5714
ltibia 15.261
lfoot -7.07824 -2.4185
ltoes 4.13601
